<?xml version="1.0" encoding="UTF-8" standalone="no"?>
<svg
   xmlns:dc="http://purl.org/dc/elements/1.1/"
   xmlns:cc="http://creativecommons.org/ns#"
   xmlns:rdf="http://www.w3.org/1999/02/22-rdf-syntax-ns#"
   xmlns:svg="http://www.w3.org/2000/svg"
   xmlns="http://www.w3.org/2000/svg"
   xmlns:sodipodi="http://sodipodi.sourceforge.net/DTD/sodipodi-0.dtd"
   xmlns:inkscape="http://www.inkscape.org/namespaces/inkscape"
   inkscape:version="1.0 (4035a4f, 2020-05-01)"
   sodipodi:docname="logo.svg"
   id="svg22"
   version="1.1"
   viewBox="0 0 640 512"
   role="img"
   class="svg-inline--fa fa-mountains fa-w-20"
   data-icon="mountains"
   data-prefix="far"
   focusable="false"
   aria-hidden="true">
  <metadata
     id="metadata28">
    <rdf:RDF>
      <cc:Work
         rdf:about="">
        <dc:format>image/svg+xml</dc:format>
        <dc:type
           rdf:resource="http://purl.org/dc/dcmitype/StillImage" />
      </cc:Work>
    </rdf:RDF>
  </metadata>
  <defs
     id="defs26">
    <style
       id="style113">.fa-secondary{opacity:.4}</style>
  </defs>
  <sodipodi:namedview
     inkscape:current-layer="g130"
     inkscape:window-maximized="0"
     inkscape:window-y="23"
     inkscape:window-x="0"
     inkscape:cy="213.8081"
     inkscape:cx="322.12928"
     inkscape:zoom="1.64375"
     showgrid="false"
     id="namedview24"
     inkscape:window-height="1038"
     inkscape:window-width="1762"
     inkscape:pageshadow="2"
     inkscape:pageopacity="0"
     guidetolerance="10"
     gridtolerance="10"
     objecttolerance="10"
     borderopacity="1"
     bordercolor="#666666"
     pagecolor="#ffffff" />
  <path
     style="fill:#474747;fill-opacity:1"
     id="path20"
     d="M635.73 406.91l-194.04-297.6C435.9 100.44 425.95 96 416 96c-9.95 0-19.9 4.44-25.69 13.31l-52 79.76-70.79-110.55C261.32 68.84 250.66 64 240 64s-21.32 4.84-27.52 14.52L4.58 403.18C-7.99 422.81 6.81 448 30.92 448h580.22c22.5 0 36.32-23.09 24.59-41.09zM63.61 400L240 124.55 416.39 400H63.61zm409.78 0L366.71 233.4 416 157.8 573.92 400H473.39z"
     fill="currentColor" />
  <g
     inkscape:label="Moon"
     id="layer1"
     inkscape:groupmode="layer">
    <g
       transform="matrix(-0.45104563,0,0,0.42965779,663.60457,-39.422121)"
       id="g130">
      <path
         d="M 320,32 304,0 288,32 256,48 288,64 304,96 320,64 352,48 Z M 458.7,181.3 432,128 405.3,181.3 352,208 405.3,234.7 432,288 458.7,234.7 512,208 Z"
         class="fa-secondary"
         id="path117" />
      <path
         d="m 332.2,426.4 c 8.1,-1.6 13.9,8 8.6,14.5 A 191.18,191.18 0 0 1 191.8,512 C 85.8,512 0,426 0,320 0,200 108.7,109.4 227,131.2 c 8.2,1.6 10.1,12.6 2.8,16.7 a 150.3,150.3 0 0 0 -76.1,130.8 c 0,94 85.4,165.4 178.5,147.7 z"
         class="fa-primary"
         id="path119" />
      <path
         transform="matrix(-2.2170706,0,0,2.3274337,1471.2582,91.752371)"
         id="path973"
         d="m 569.42966,179.9813 c -16.72841,-2.03403 -29.50906,-6.57699 -42.04294,-14.94445 -6.30159,-4.20686 -18.18867,-15.39155 -18.18655,-17.11192 0.002,-1.79973 2.89223,-4.26916 4.44632,-3.79926 2.82589,0.85444 17.94767,1.09424 22.94303,0.36383 29.56995,-4.3237 52.7027,-26.29375 57.19244,-54.31782 1.06881,-6.671343 0.493,-18.880904 -1.1985,-25.413013 -1.5699,-6.062491 -5.51326,-14.703909 -9.16125,-20.075816 -5.12158,-7.541864 -14.85128,-16.326134 -23.04798,-20.808437 -2.21627,-1.211947 -2.60506,-3.91208 -0.79869,-5.546824 2.44896,-2.216278 20.34461,-2.993776 31.14689,-1.353214 27.15879,4.12465 51.33446,21.10798 63.45609,44.577684 11.41764,22.106653 11.91798,48.46113 1.33777,70.4643 -7.6564,15.92264 -22.34974,30.67175 -38.86457,39.01206 -5.68927,2.87319 -17.1506,6.62737 -23.80001,7.79574 -5.46291,0.95989 -19.38685,1.64778 -23.42205,1.15714 z"
         style="fill:#474747;fill-opacity:1;stroke-width:0.608365" />
    </g>
  </g>
</svg>
